<svg width="32" height="33" viewBox="0 0 32 33" fill="none" xmlns="http://www.w3.org/2000/svg">
<path d="M12.244 17.1371C11.8053 17.1374 11.3764 17.2677 11.0117 17.5117C10.647 17.7557 10.3628 18.1023 10.195 18.5077C10.0272 18.9131 9.98341 19.3592 10.0691 19.7896C10.1548 20.2199 10.3661 20.6152 10.6763 20.9254C10.9866 21.2357 11.3819 21.447 11.8122 21.5327C12.2426 21.6184 12.6886 21.5745 13.0941 21.4068C13.4995 21.239 13.8461 20.9548 14.0901 20.5901C14.334 20.2254 14.4644 19.7965 14.4647 19.3577C14.4649 19.0661 14.4076 18.7772 14.2961 18.5077C14.1845 18.2382 14.021 17.9933 13.8147 17.7871C13.6085 17.5808 13.3636 17.4173 13.0941 17.3057C12.8246 17.1942 12.5357 17.1369 12.244 17.1371Z" fill="white"/>
<path d="M19.6915 17.1371C19.2528 17.1375 18.824 17.268 18.4594 17.5121C18.0948 17.7561 17.8107 18.1028 17.643 18.5082C17.4754 18.9137 17.4317 19.3597 17.5174 19.79C17.6032 20.2203 17.8146 20.6155 18.1248 20.9257C18.4351 21.2359 18.8304 21.4471 19.2607 21.5328C19.6911 21.6184 20.1371 21.5745 20.5425 21.4067C20.9479 21.2389 21.2944 20.9547 21.5384 20.59C21.7823 20.2253 21.9126 19.7965 21.9129 19.3577C21.9127 18.7687 21.6786 18.2039 21.262 17.7875C20.8455 17.371 20.2806 17.1371 19.6915 17.1371Z" fill="white"/>
<path d="M15.9252 0.010376L6.56853 9.36405C6.26609 9.66117 6.0261 10.0157 5.86265 10.4069C5.69919 10.7981 5.61557 11.218 5.61671 11.642V23.9434C5.61632 24.3471 5.69555 24.747 5.84987 25.12C6.00419 25.4931 6.23057 25.8321 6.51604 26.1176C6.80152 26.403 7.14049 26.6294 7.51356 26.7837C7.88663 26.9381 8.28648 27.0173 8.6902 27.0169H13.2826V27.4024C13.2836 27.5546 13.2543 27.7055 13.1965 27.8464C13.1387 27.9872 13.0535 28.1152 12.9458 28.2229C12.8382 28.3305 12.7102 28.4157 12.5694 28.4735C12.4285 28.5313 12.2776 28.5606 12.1254 28.5596H9.77448C9.31513 28.5592 8.86513 28.6893 8.47686 28.9348C8.0886 29.1802 7.77804 29.5309 7.58136 29.946L6.61392 32.0297H13.2796C13.8069 32.0291 14.3125 31.8193 14.6853 31.4464C15.0581 31.0735 15.2677 30.5678 15.2681 30.0405V27.0169H16.6545V30.042C16.6545 30.5675 16.8624 31.0717 17.2329 31.4444C17.6034 31.8171 18.1063 32.0281 18.6318 32.0312H25.3094L24.3419 29.9475C24.1463 29.5339 23.8376 29.1841 23.4514 28.9388C23.0653 28.6934 22.6175 28.5624 22.16 28.5611H19.7949C19.49 28.5585 19.1984 28.4354 18.984 28.2186C18.7695 28.0017 18.6496 27.7088 18.6504 27.4039V27.0184H23.2428C24.0575 27.0172 24.8386 26.693 25.4147 26.1169C25.9909 25.5407 26.3151 24.7597 26.3162 23.9449V11.6547C26.3135 10.792 25.9716 9.96497 25.3644 9.35215L15.9252 0.010376ZM8.60015 9.98247L13.3949 5.16535C13.4535 5.1066 13.5231 5.05999 13.5997 5.02819C13.6763 4.9964 13.7585 4.98004 13.8415 4.98005L17.9799 4.97633C18.1472 4.97607 18.3078 5.04217 18.4264 5.16014L23.242 9.96163C23.2878 10.0072 23.3241 10.0614 23.3489 10.121C23.3737 10.1806 23.3864 10.2446 23.3864 10.3092C23.3864 10.3738 23.3737 10.4377 23.3489 10.4973C23.3241 10.557 23.2878 10.6111 23.242 10.6567L21.805 12.0945C21.7588 12.1407 21.7037 12.1773 21.6432 12.2021C21.5826 12.2269 21.5177 12.2393 21.4523 12.2387C21.3869 12.238 21.3223 12.2244 21.2622 12.1985C21.2021 12.1726 21.1478 12.1349 21.1025 12.0878L19.5159 10.4394C19.3918 10.3112 19.2437 10.2087 19.08 10.1378C18.9163 10.0669 18.7402 10.0291 18.5618 10.0264C18.3781 10.0277 18.1967 10.0672 18.029 10.1422C17.8613 10.2173 17.7111 10.3263 17.5877 10.4625L16.2973 11.9345C16.2512 11.9869 16.1944 12.0288 16.1309 12.0576C16.0673 12.0863 15.9983 12.1012 15.9285 12.1012C15.8587 12.1012 15.7898 12.0863 15.7262 12.0576C15.6626 12.0288 15.6059 11.9869 15.5598 11.9345L14.2686 10.4729C14.1422 10.3339 13.9884 10.2225 13.817 10.1457C13.6455 10.0689 13.46 10.0283 13.2722 10.0264C13.0928 10.0275 12.9157 10.0658 12.752 10.139C12.5883 10.2121 12.4416 10.3185 12.3211 10.4513L10.736 12.0848C10.6909 12.1312 10.637 12.1683 10.5775 12.1939C10.5181 12.2194 10.4541 12.233 10.3894 12.2337C10.3247 12.2345 10.2604 12.2225 10.2003 12.1983C10.1403 12.1741 10.0856 12.1384 10.0394 12.093L8.60238 10.679C8.55613 10.6336 8.51932 10.5795 8.49408 10.5198C8.46883 10.4601 8.45566 10.396 8.45531 10.3312C8.45497 10.2663 8.46746 10.2021 8.49206 10.1421C8.51666 10.0821 8.55289 10.0276 8.59866 9.98173M24.3858 23.9397C24.3854 24.2432 24.2646 24.5342 24.0499 24.7488C23.8352 24.9634 23.5441 25.084 23.2405 25.0842H8.68946C8.38609 25.0838 8.09527 24.9631 7.88083 24.7485C7.66639 24.5339 7.54584 24.243 7.54564 23.9397V14.7698C7.54405 14.6175 7.57287 14.4663 7.63042 14.3253C7.68796 14.1842 7.77307 14.056 7.88077 13.9483C7.98846 13.8405 8.11658 13.7553 8.25761 13.6977C8.39864 13.64 8.54976 13.6111 8.70211 13.6126H23.239C23.5443 13.6146 23.8362 13.7375 24.0509 13.9544C24.2656 14.1714 24.3855 14.4646 24.3843 14.7698L24.3858 23.9397Z" fill="white"/>
<path d="M27.0942 15.1553V23.5452C27.3476 23.5453 27.5985 23.4955 27.8325 23.3986C28.0666 23.3017 28.2793 23.1596 28.4584 22.9805C28.6376 22.8013 28.7796 22.5887 28.8765 22.3546C28.9734 22.1205 29.0233 21.8696 29.0232 21.6163V17.0842C29.0232 16.5726 28.8199 16.082 28.4582 15.7202C28.0965 15.3585 27.6058 15.1553 27.0942 15.1553Z" fill="white"/>
<path d="M2.97656 17.0842V21.6163C2.97656 22.1279 3.17979 22.6185 3.54153 22.9802C3.90328 23.342 4.39391 23.5452 4.90549 23.5452V15.156C4.39404 15.156 3.90352 15.3591 3.5418 15.7207C3.18007 16.0823 2.97676 16.5727 2.97656 17.0842Z" fill="white"/>
</svg>